# xmcd
#
# Track frame offsets:
#	150
#	12432
#	28794
#	43777
#	63557
#	75727
#	94045
#	105665
#	119320
#	138630
#
# Disc length: 2061 seconds
#
# Revision: 0
# Processed by: cddbd v1.5PL3 Copyright (c) Steve Scherf et al.
# Submitted via: dBpowerAMP V4.0
#
DISCID=85080b0a
DTITLE=Marcus Rowe - Marcus
DYEAR=1900
DGENRE=Country
TTITLE0=Two Ring Circus
TTITLE1=You Don't Have to Ask Me Twice
TTITLE2=Marrying My First Love
TTITLE3=He Knows Her Like the Back of His Hand
TTITLE4=I'll Have What He's Havin'
TTITLE5=We Have to Stop Meeting Like This
TTITLE6=Christmas Blues
TTITLE7=Year Ago Today
TTITLE8=Love of My Life
TTITLE9=Take it From Me
EXTD=Original Recording
EXTT0=
EXTT1=
EXTT2=
EXTT3=
EXTT4=
EXTT5=
EXTT6=
EXTT7=
EXTT8=
EXTT9=
PLAYORDER=
